<svg xmlns="http://www.w3.org/2000/svg" width="81" height="22" viewBox="0 0 81 22" fill="none"><path d="M5.73001 6C8.48001 6 9.35501 6.25 9.85501 7.75H9.98001V4.875C9.98001 3.5 9.35501 3 7.73001 3C6.35501 3 5.98001 3.25 5.85501 4.625H0.980011C1.10501 2.875 1.23001 2.25 1.73001 1.5C2.60501 0.375 4.10501 0 7.48001 0C11.605 0 13.355 0.625 14.23 2.375C14.48 3 14.73 4.375 14.73 5.375V14.875H9.98001L10.105 12.5H9.98001C9.35501 14.5 8.35501 15.125 5.60501 15.125C1.73001 15.125 0.480011 13.875 0.480011 10.375C0.480011 7.25 1.98001 6 5.73001 6ZM7.85501 12C9.48001 12 9.98001 11.625 9.98001 10.25C9.98001 9.125 9.35501 8.875 7.48001 8.875C5.85501 8.875 5.23001 9.25 5.23001 10.375C5.23001 11.625 5.73001 12 7.85501 12ZM17.605 0.125H22.355L22.105 2.625H22.23C23.355 0.5 24.23 0 26.98 0C28.73 0 29.98 0.375 30.855 1.25C32.105 2.25 32.48 3.75 32.48 7.25C32.48 11 32.105 12.625 30.98 13.875C30.105 14.75 28.855 15.125 26.855 15.125C24.23 15.125 23.105 14.375 22.605 12.375H22.48V21.25H17.605V0.125ZM27.605 7.625C27.605 4.25 27.23 3.625 25.105 3.625C22.98 3.625 22.48 4.25 22.48 7.25C22.48 10.75 22.98 11.375 25.105 11.375C27.23 11.375 27.605 10.75 27.605 7.625ZM34.855 0.125H39.73L39.48 2.625H39.605C40.73 0.5 41.605 0 44.23 0C46.105 0 47.355 0.375 48.23 1.25C49.48 2.25 49.855 3.75 49.855 7.25C49.855 11 49.48 12.625 48.355 13.875C47.48 14.75 46.23 15.125 44.105 15.125C41.605 15.125 40.48 14.375 39.98 12.375H39.855V21.25H34.855V0.125ZM44.98 7.625C44.98 4.25 44.605 3.625 42.48 3.625C40.355 3.625 39.855 4.25 39.855 7.25C39.855 10.75 40.23 11.375 42.48 11.375C44.48 11.375 44.98 10.75 44.98 7.625ZM51.73 7.25C51.73 4 52.105 2.5 53.23 1.5C54.355 0.5 56.105 0.125 58.855 0.125C64.23 0.125 65.855 1.625 65.855 7V8.375H56.48C56.48 8.625 56.48 8.875 56.48 9C56.48 11.125 56.98 11.75 58.98 11.75C60.73 11.75 61.23 11.375 61.23 10H65.855V10.25C65.855 11.5 65.605 12.625 64.98 13.375C64.105 14.625 62.605 15.125 59.48 15.125C55.98 15.125 54.23 14.625 53.105 13.5C52.105 12.5 51.73 10.875 51.73 7.25ZM61.23 5.75C61.23 5.5 61.23 5.375 61.23 5.25C61.23 3.75 60.855 3.5 58.855 3.5C56.98 3.5 56.605 3.875 56.48 5.375V5.75H61.23ZM68.23 0.125H72.98L72.855 2.625C73.73 0.75 74.73 0 76.605 0C77.98 0 78.98 0.5 79.48 1.25C80.23 2.125 80.355 3 80.355 5.5C80.355 5.625 80.355 6.125 80.355 6.625H75.98C76.105 6.375 76.105 6.25 76.105 6.125C76.105 4.25 75.855 3.75 74.73 3.75C73.98 3.75 73.48 4.125 73.105 4.875C72.98 5.25 72.98 5.375 72.98 6.375V14.875H68.23V0.125Z" fill="#002C5F"></path></svg>